<svg width="175" height="175" viewBox="0 0 175 175" fill="none" xmlns="http://www.w3.org/2000/svg">
<circle cx="87.5" cy="87.5" r="87.5" fill="url(#paint0_radial_316_15)"/>
<path fill-rule="evenodd" clip-rule="evenodd" d="M120.16 119.587V79.4236C120.16 76.7245 119.069 74.1401 117.135 72.2576L97.6604 53.3025C95.7934 51.4853 93.2909 50.4685 90.6855 50.4685H62.5612C59.506 50.4685 56.5759 51.6822 54.4156 53.8426C52.2552 56.0029 51.0415 58.933 51.0415 61.9882V119.587C51.0415 122.642 52.2552 125.572 54.4156 127.733C56.5759 129.893 59.506 131.107 62.5612 131.107H108.64C111.695 131.107 114.625 129.893 116.786 127.733C118.946 125.572 120.16 122.642 120.16 119.587Z" stroke="#0B682F" stroke-width="3" stroke-linecap="round" stroke-linejoin="round"/>
<path d="M94.6035 51.1461V63.479C94.6035 66.4983 95.86 69.3939 98.0967 71.5289C100.333 73.6638 103.367 74.8632 106.53 74.8632H118.998" stroke="#0B682F" stroke-width="3" stroke-linecap="round" stroke-linejoin="round"/>
<circle cx="120.553" cy="111.553" r="13.5526" fill="#0B682F"/>
<path d="M125.328 107.133C125.55 106.923 125.846 106.807 126.153 106.809C126.46 106.811 126.755 106.932 126.974 107.146C127.193 107.359 127.32 107.649 127.328 107.953C127.337 108.258 127.225 108.554 127.017 108.779L120.716 116.598C120.607 116.714 120.477 116.807 120.331 116.871C120.186 116.936 120.029 116.97 119.87 116.973C119.71 116.976 119.552 116.947 119.404 116.888C119.257 116.829 119.123 116.741 119.01 116.629L114.831 112.483C114.714 112.375 114.621 112.246 114.556 112.101C114.492 111.957 114.457 111.802 114.454 111.644C114.451 111.486 114.48 111.329 114.54 111.183C114.6 111.037 114.688 110.904 114.801 110.792C114.913 110.681 115.047 110.593 115.195 110.533C115.342 110.474 115.5 110.445 115.659 110.448C115.818 110.451 115.975 110.485 116.121 110.55C116.266 110.614 116.397 110.706 116.505 110.822L119.812 114.102L125.298 107.168C125.307 107.156 125.318 107.144 125.329 107.133H125.328Z" fill="#F1E75B"/>
<line x1="62.5122" y1="78.5" x2="85.9398" y2="78.5" stroke="#0B682F" stroke-width="3" stroke-linecap="round"/>
<line x1="62.5122" y1="107.895" x2="85.9398" y2="107.895" stroke="#0B682F" stroke-width="3" stroke-linecap="round"/>
<path d="M61.6899 88.7764H100.315" stroke="#0B682F" stroke-width="3" stroke-linecap="round"/>
<path d="M61.6899 97.908H100.315" stroke="#0B682F" stroke-width="3" stroke-linecap="round"/>
<defs>
<radialGradient id="paint0_radial_316_15" cx="0" cy="0" r="1" gradientUnits="userSpaceOnUse" gradientTransform="translate(87.5 87.5) rotate(90.0996) scale(287.5)">
<stop stop-color="#F0ECB4"/>
<stop offset="0.237146" stop-color="#F2E52D"/>
<stop offset="0.394591" stop-color="#FFA400"/>
</radialGradient>
</defs>
</svg>
