<svg width="175" height="175" viewBox="0 0 175 175" fill="none" xmlns="http://www.w3.org/2000/svg">
<circle cx="87.5" cy="87.5" r="87.5" fill="url(#paint0_radial_316_16)"/>
<path d="M116.702 81.9185L113.017 84.6214C112.681 84.8671 112.299 85.0406 111.893 85.1307L107.287 86.1543C106.205 86.3947 105.344 87.2121 105.047 88.2799L103.719 93.0619C103.634 93.3681 103.501 93.6587 103.325 93.9231L100.902 97.5563C100.191 98.6232 100.237 100.024 101.016 101.043L104.196 105.202C104.56 105.677 104.773 106.251 104.808 106.848L105 110.112C105.083 111.52 106.134 112.679 107.527 112.899L111.66 113.552C112.215 113.64 112.733 113.881 113.157 114.248L116.529 117.17C117.581 118.082 119.122 118.15 120.25 117.335L124.746 114.089C125.113 113.824 125.535 113.645 125.981 113.566L129.787 112.895C131.048 112.672 132.029 111.673 132.229 110.408L132.959 105.784C133.024 105.37 133.176 104.974 133.403 104.622L136.2 100.301C136.876 99.2554 136.836 97.9009 136.1 96.8969L133.481 93.3247C133.203 92.9459 133.018 92.5072 132.941 92.0438L132.265 87.9924C132.046 86.6755 130.983 85.6621 129.657 85.5062L125.956 85.0708C125.526 85.0202 125.112 84.8771 124.743 84.6512L120.041 81.7779C119.002 81.1434 117.684 81.1989 116.702 81.9185Z" fill="#0B682F"/>
<path d="M117.032 92.5756L116.618 92.876C116.284 93.1185 115.903 93.2894 115.5 93.3781L114.831 93.5252C113.749 93.7632 112.886 94.578 112.587 95.6446L112.36 96.454C112.273 96.7619 112.138 97.0541 111.96 97.3193L111.751 97.6284C111.029 98.7008 111.075 100.115 111.866 101.139L112.254 101.641C112.568 102.047 112.752 102.539 112.782 103.051C112.854 104.25 113.751 105.237 114.937 105.422L115.275 105.475C115.822 105.561 116.334 105.797 116.754 106.157L116.858 106.246C117.906 107.146 119.433 107.213 120.556 106.41L121.125 106.003C121.491 105.742 121.911 105.566 122.354 105.488L122.441 105.473C123.703 105.253 124.686 104.255 124.887 102.99L124.956 102.563C125.022 102.146 125.176 101.748 125.407 101.394L125.77 100.839C126.457 99.7884 126.417 98.4207 125.669 97.4119L125.485 97.1629C125.203 96.7829 125.016 96.3416 124.937 95.8752L124.922 95.7867C124.702 94.478 123.643 93.4721 122.325 93.3186C121.901 93.2692 121.492 93.1292 121.126 92.908L120.346 92.4365C119.314 91.812 118.008 91.8668 117.032 92.5756Z" fill="#F1E762"/>
<path d="M117.549 110.196L111.177 127.02C110.626 128.476 108.694 128.771 107.733 127.546L106.369 125.807C105.976 125.304 105.366 125.02 104.728 125.042L101.702 125.145C100.248 125.194 99.2294 123.725 99.786 122.381L107.08 104.768" stroke="#0B682F" stroke-width="3"/>
<path d="M119.621 110.84L125.992 127.663C126.544 129.12 128.475 129.415 129.436 128.189L130.8 126.45C131.194 125.948 131.804 125.664 132.442 125.686L135.468 125.789C136.922 125.838 137.94 124.368 137.384 123.024L130.089 105.412" stroke="#0B682F" stroke-width="3"/>
<path d="M54.8987 79.8282V104.657C54.8987 107.418 57.1373 109.657 59.8987 109.657H103.819C106.58 109.657 108.819 107.418 108.819 104.657V79.8282" stroke="#0B682F" stroke-width="3"/>
<path d="M78.9909 109.657V92.1534C78.9909 91.0489 78.0954 90.1534 76.9909 90.1534H63.7822C62.6777 90.1534 61.7822 91.0489 61.7822 92.1534V109.657" stroke="#0B682F" stroke-width="3"/>
<mask id="path-8-inside-1_316_16" fill="white">
<rect x="84.7271" y="90.1534" width="17.2086" height="10.3252" rx="2"/>
</mask>
<rect x="84.7271" y="90.1534" width="17.2086" height="10.3252" rx="2" stroke="#0B682F" stroke-width="6" mask="url(#path-8-inside-1_316_16)"/>
<path d="M99.017 50H66.2677C65.5917 50 64.9356 50.2283 64.4056 50.6479L51.457 60.8988V75.2393C51.6482 77.3426 53.981 81.5492 61.7822 81.5492C65.4151 81.7404 72.681 80.7461 72.681 75.2393C72.681 80.4019 80.7117 81.7404 83.0062 81.5492C89.316 81.0233 92.1841 78.2986 93.3314 75.8129C95.0522 80.4019 101.171 81.7404 103.657 81.5492C109.966 81.0638 111.687 77.725 111.687 75.2393V60.8988L101.083 50.825C100.526 50.2953 99.786 50 99.017 50Z" stroke="#0B682F" stroke-width="3"/>
<path d="M76.6963 50L72.6809 60.3252V75.2393" stroke="#0B682F" stroke-width="3"/>
<path d="M89.3159 50L92.7576 60.5449L93.3313 75.8129" stroke="#0B682F" stroke-width="3"/>
<path d="M51.457 60.8988H111.687" stroke="#0B682F" stroke-width="3"/>
<defs>
<radialGradient id="paint0_radial_316_16" cx="0" cy="0" r="1" gradientUnits="userSpaceOnUse" gradientTransform="translate(87.5 87.5) rotate(90.0996) scale(287.5)">
<stop stop-color="#F0ECB4"/>
<stop offset="0.237146" stop-color="#F2E52D"/>
<stop offset="0.394591" stop-color="#FFA400"/>
</radialGradient>
</defs>
</svg>
