<svg width="175" height="175" viewBox="0 0 175 175" fill="none" xmlns="http://www.w3.org/2000/svg">
<circle cx="87.5" cy="87.5" r="87.5" fill="url(#paint0_radial_488_17)"/>
<path d="M101 64C101 64.5304 100.745 65.0391 100.292 65.4142C99.839 65.7893 99.2243 66 98.5833 66H74.4167C73.7757 66 73.161 65.7893 72.7078 65.4142C72.2546 65.0391 72 64.5304 72 64C72 63.4696 72.2546 62.9609 72.7078 62.5858C73.161 62.2107 73.7757 62 74.4167 62H98.5833C99.2243 62 99.839 62.2107 100.292 62.5858C100.745 62.9609 101 63.4696 101 64Z" fill="#0B682F"/>
<path d="M93 101.763C93 96.2212 82.1854 96.5827 82.1854 93.2392C82.1854 91.6201 83.8251 90.8291 85.7281 90.8291C88.9267 90.8291 89.4964 92.7713 90.9445 92.7713C91.9691 92.7713 92.4631 92.161 92.4631 91.4765C92.4631 89.8871 89.9123 88.6839 87.4661 88.2679V86.733C87.4661 85.7761 86.6469 85 85.6336 85C84.6191 85 83.7986 85.7761 83.7986 86.733V88.3212C81.1318 88.8943 78.8368 90.6422 78.8368 93.4905C78.8368 98.812 89.6489 98.5966 89.6489 102.335C89.6489 103.631 88.1643 104.926 85.7281 104.926C82.072 104.926 80.8546 102.588 79.3699 102.588C78.6465 102.588 78 103.162 78 104.028C78 105.406 80.4424 107.062 83.8011 107.524L83.7999 107.536V109.267C83.7999 110.223 84.6216 111 85.6349 111C86.6481 111 87.4686 110.223 87.4686 109.267V107.536C87.4686 107.515 87.4585 107.499 87.4572 107.481C90.4794 106.948 93 105.089 93 101.763Z" fill="#0B682F"/>
<path d="M57.5 105C57.5 92.567 69.3907 74.9507 76.1139 66.5853C76.6731 65.8896 77.5163 65.5 78.4088 65.5H94.7572C95.5529 65.5 96.3194 65.8173 96.8771 66.3847C108.246 77.9508 113.074 86.9574 116 105C116.4 120.2 113 129.5 108 129.5H68.2969C68.0994 129.5 67.8984 129.481 67.7057 129.437C57.9771 127.224 56.8399 113.416 57.5 105Z" stroke="#0B682F" stroke-width="3"/>
<path d="M99.8508 57.8789L96.8994 61.4206C96.3294 62.1045 95.4851 62.5 94.5947 62.5H79.5201C78.5644 62.5 77.666 62.0447 77.1008 61.2741L73.6473 56.5647C72.9732 55.6454 73.0123 54.3851 73.742 53.5094C74.479 52.625 75.7276 52.3639 76.7573 52.8787L79.7102 54.3552C80.5253 54.7627 81.4816 54.7777 82.309 54.3958L86.1907 52.6042C87.0182 52.2223 87.9744 52.2373 88.7895 52.6448L92.0978 54.299C92.9762 54.7382 94.0139 54.7196 94.876 54.2494L96.2525 53.4986C97.7324 52.6913 99.5862 53.3193 100.271 54.8598C100.717 55.864 100.554 57.0346 99.8508 57.8789Z" stroke="#0B682F" stroke-width="3"/>
<path d="M109 81.5L110.856 78.4061C111.536 77.2738 112.875 76.7189 114.156 77.0391L114.556 77.1391C115.466 77.3665 116.224 78.0024 116.548 78.8822C117.49 81.442 118.498 85.1695 117.5 86.5C116.587 87.7178 114.07 89.3991 112.112 90.5738C111.135 91.1599 109.91 91.0867 108.976 90.4333L107.686 89.5304C106.44 88.6578 106.044 86.9901 106.765 85.6504L109 81.5Z" fill="#F1E86E" stroke="#0B682F" stroke-width="3"/>
<path d="M122.545 69.2656L129 74M117.661 67H112.831M108 67H112.831M112.831 67L112.789 70.2507" stroke="#0B682F" stroke-width="3.81818" stroke-linecap="round" stroke-linejoin="round"/>
<path d="M124.044 73.262L122.155 75.3402" stroke="#0B682F" stroke-width="3.81818" stroke-linecap="round"/>
<path d="M111.965 98.015C119.059 98.015 124.809 92.2644 124.809 85.1707C124.809 78.077 119.059 72.3264 111.965 72.3264C104.871 72.3264 99.1206 78.077 99.1206 85.1707C99.1206 92.2644 104.871 98.015 111.965 98.015Z" fill="#0B682F" stroke="#0B682F" stroke-width="3.81818" stroke-linecap="round" stroke-linejoin="round"/>
<path d="M112.577 79.666V85.7823L108.907 88.2288" stroke="#F1E868" stroke-width="3.81818" stroke-linecap="round" stroke-linejoin="round"/>
<defs>
<radialGradient id="paint0_radial_488_17" cx="0" cy="0" r="1" gradientUnits="userSpaceOnUse" gradientTransform="translate(87.5 87.5) rotate(90.0996) scale(287.5)">
<stop stop-color="#F0ECB4"/>
<stop offset="0.237146" stop-color="#F2E52D"/>
<stop offset="0.394591" stop-color="#FFA400"/>
</radialGradient>
</defs>
</svg>
