<svg width="15" height="13" viewBox="0 0 15 13" fill="none" xmlns="http://www.w3.org/2000/svg">
<path d="M6.88244 12.6256C6.95125 12.7411 7.04332 12.8355 7.15072 12.9007C7.25813 12.9659 7.37765 13 7.49898 13C7.62032 13 7.73984 12.9659 7.84724 12.9007C7.95465 12.8355 8.04672 12.7411 8.11553 12.6256L14.8661 1.35971C14.9442 1.22977 14.99 1.07757 14.9985 0.919649C15.0071 0.76173 14.978 0.604132 14.9144 0.463976C14.8509 0.32382 14.7553 0.206468 14.6381 0.124669C14.5208 0.0428694 14.3865 -0.000248148 14.2495 1.07429e-06H0.748455C0.611827 0.000653117 0.477937 0.0443251 0.361185 0.12632C0.244433 0.208315 0.149235 0.325531 0.0858294 0.465363C0.0224239 0.605195 -0.0067904 0.762351 0.0013282 0.919931C0.00944681 1.07751 0.0545911 1.22955 0.131906 1.35971L6.88244 12.6256Z" fill="#DB2727"/>
</svg>
