<svg width="28" height="27" viewBox="0 0 28 27" fill="none" xmlns="http://www.w3.org/2000/svg">
<path d="M26.1154 0.945804C26.5334 0.944988 26.9386 1.09058 27.2605 1.35731C27.4416 1.50751 27.5914 1.69197 27.7012 1.90014C27.8109 2.1083 27.8786 2.33607 27.9002 2.57041C27.9218 2.80475 27.8969 3.04105 27.8271 3.26577C27.7572 3.4905 27.6437 3.69923 27.4931 3.88002L19.4776 13.4699L27.2068 23.0777C27.3554 23.2607 27.4664 23.4713 27.5334 23.6973C27.6003 23.9234 27.622 24.1604 27.597 24.3948C27.5721 24.6293 27.5011 24.8565 27.388 25.0634C27.275 25.2703 27.1222 25.4528 26.9384 25.6004C26.7533 25.7633 26.5365 25.8862 26.3017 25.9613C26.0668 26.0364 25.819 26.0622 25.5737 26.037C25.3284 26.0118 25.091 25.9361 24.8763 25.8148C24.6617 25.6935 24.4744 25.5292 24.3262 25.332L15.6846 14.5971C15.4215 14.2769 15.2776 13.8754 15.2776 13.461C15.2776 13.0466 15.4215 12.645 15.6846 12.3249L24.6304 1.5899C24.8099 1.37338 25.0379 1.20223 25.2959 1.09032C25.5539 0.978407 25.8347 0.928896 26.1154 0.945804Z" fill="#F2E52D"/>
<path d="M11.6165 0.945804C12.0274 0.944988 12.4255 1.09058 12.7418 1.35731C12.9199 1.50751 13.0671 1.69197 13.1749 1.90014C13.2828 2.1083 13.3493 2.33607 13.3705 2.57041C13.3917 2.80475 13.3673 3.04105 13.2987 3.26577C13.23 3.4905 13.1185 3.69923 12.9704 3.88002L5.09319 13.4699L12.6891 23.0777C12.8351 23.2607 12.9442 23.4713 13.01 23.6973C13.0759 23.9234 13.0971 24.1604 13.0726 24.3948C13.0481 24.6293 12.9783 24.8565 12.8672 25.0634C12.7561 25.2703 12.606 25.4528 12.4253 25.6004C12.2434 25.7633 12.0304 25.8862 11.7996 25.9613C11.5688 26.0364 11.3252 26.0622 11.0842 26.037C10.8431 26.0118 10.6098 25.9361 10.3988 25.8148C10.1878 25.6935 10.0038 25.5292 9.85821 25.332L1.36557 14.5971C1.10695 14.2769 0.965575 13.8754 0.965575 13.461C0.965575 13.0466 1.10695 12.645 1.36557 12.3249L10.1571 1.5899C10.3335 1.37338 10.5576 1.20223 10.8111 1.09032C11.0647 0.978407 11.3406 0.928896 11.6165 0.945804Z" fill="#F2E52D"/>
</svg>
