<svg width="363" height="57" viewBox="0 0 363 57" fill="none" xmlns="http://www.w3.org/2000/svg">
<path fill-rule="evenodd" clip-rule="evenodd" d="M132.155 8.40063H95.2243L93.1221 16.3502H105.735L97.4401 46.1187H109.258L117.439 16.3502H129.939L132.155 8.40063Z" fill="#0D6639"/>
<path fill-rule="evenodd" clip-rule="evenodd" d="M201.925 8.40051H190.903L185.449 29.4302L157.097 7.16016L147.041 46.1186H158.063L163.404 25.0889L191.869 47.359L201.925 8.40051Z" fill="#0D6639"/>
<path fill-rule="evenodd" clip-rule="evenodd" d="M209.028 8.40063H220.845L210.448 46.1187H198.63L209.028 8.40063Z" fill="#0D6639"/>
<path fill-rule="evenodd" clip-rule="evenodd" d="M245.504 46.1187L230.561 27.2879L255.39 8.40063H240.958L216.243 27.1751L216.016 27.3443H216.073L216.982 28.4718L231.072 46.1187H245.504Z" fill="#0D6639"/>
<path fill-rule="evenodd" clip-rule="evenodd" d="M272.548 6.65283L271.526 7.66767L232.209 46.1187H245.447L267.605 24.4125L271.242 31.911L263.912 32.1365L255.844 40.1424L274.935 39.8605L277.832 46.1187H291.127L272.548 6.65283Z" fill="#0D6639"/>
<path fill-rule="evenodd" clip-rule="evenodd" d="M61.9866 6.65283L60.9639 7.66767L21.647 46.1187H34.8852L57.0436 24.4125L60.6798 31.911L53.3505 32.1365L45.2826 40.1424L64.3729 39.8605L67.2705 46.1187H80.5656L61.9866 6.65283Z" fill="#0D6639"/>
<path fill-rule="evenodd" clip-rule="evenodd" d="M135.337 18.8872H147.098L139.541 46.1187H127.837L135.337 18.8872Z" fill="#0D6639"/>
<path fill-rule="evenodd" clip-rule="evenodd" d="M10.1701 6.65283H21.9879L11.7042 46.1187H0L10.1701 6.65283Z" fill="#0D6639"/>
<path fill-rule="evenodd" clip-rule="evenodd" d="M138.234 8.40063H150.052L147.836 16.2374H136.019L138.234 8.40063Z" fill="#0D6639"/>
<path fill-rule="evenodd" clip-rule="evenodd" d="M299.593 28.4718L299.65 27.0059L299.763 25.5964L299.934 24.1869L300.218 22.8338L300.559 21.4243L300.9 20.0148L301.354 18.7181L301.865 17.4214L302.49 16.181L303.115 14.9407L303.797 13.7003L304.536 12.5727L305.331 11.4451L306.183 10.3739L307.093 9.35905L308.058 8.40059L309.024 7.44214L310.047 6.54006L311.126 5.69436L312.263 4.90504L313.399 4.17211L314.649 3.49555L315.899 2.87537L317.092 2.25519L318.456 1.74777L319.763 1.29674L321.183 0.958457L322.547 0.620178L323.967 0.338279L325.387 0.169139L326.808 0.11276L328.285 0L329.819 0.11276L331.296 0.169139L332.717 0.338279L334.137 0.620178L335.501 0.958457L336.864 1.29674L338.171 1.74777L339.478 2.25519L340.728 2.87537L341.978 3.49555L343.171 4.17211L344.307 4.90504L345.5 5.69436L346.523 6.54006L347.603 7.44214L348.625 8.40059L349.534 9.35905L350.5 10.3739L351.296 11.4451L352.091 12.5727L352.887 13.7003L353.568 14.9407L354.193 16.181L354.705 17.4214L355.273 18.7181L355.671 20.0148L356.125 21.4243L356.409 22.8338L356.636 24.1869L356.864 25.5964L357.034 27.0059V28.4718V29.9941L356.864 31.4599L356.636 32.8694L356.409 34.2789L356.125 35.632L355.671 36.9852L355.273 38.2819L354.705 39.5786L354.193 40.819L353.568 42.1157L352.887 43.2433L352.091 44.4273L351.296 45.5549L350.5 46.5697L349.534 47.641L348.625 48.6558L347.603 49.5579L346.523 50.5163L345.5 51.3056L344.307 52.095L343.171 52.8843L341.978 53.5608L340.728 54.181L339.478 54.7448L338.171 55.2522L336.864 55.7033L335.501 56.0979L334.137 56.3798L332.717 56.6617L331.296 56.8309L329.819 57H328.285H326.808L325.387 56.8309L323.967 56.6617L322.547 56.3798L321.183 56.0979L319.763 55.7033L318.456 55.2522L317.092 54.7448L315.899 54.181L314.649 53.5608L313.399 52.8843L312.263 52.095L311.126 51.3056L310.047 50.5163L309.024 49.5579L308.058 48.6558L307.093 47.641L306.183 46.5697L305.331 45.5549L304.536 44.4273L303.797 43.2433L303.115 42.1157L302.49 40.819L301.865 39.5786L301.354 38.2819L300.9 36.9852L300.559 35.632L300.218 34.2789L299.934 32.8694L299.763 31.4599L299.65 29.9941L299.593 28.4718Z" fill="#0D6639"/>
<path fill-rule="evenodd" clip-rule="evenodd" d="M305.502 28.4718L305.559 27.3442L305.672 26.2166L305.729 25.089L305.899 23.9614L306.184 22.8339L306.524 21.7626L306.922 20.6914L307.32 19.6766L307.774 18.7181L308.229 17.7597L308.854 16.8012L309.365 15.8428L310.672 14.0386L312.206 12.5163L313.74 10.9941L315.501 9.69735L316.524 9.18993L317.49 8.56976L318.456 8.11872L319.422 7.66768L320.444 7.27302L321.524 6.87836L322.547 6.54008L323.74 6.37094L324.876 6.08905L326.012 6.03266L327.149 5.91991L328.285 5.86353L329.535 5.91991L330.671 6.03266L331.808 6.08905L332.887 6.37094L334.024 6.54008L335.103 6.87836L336.126 7.27302L337.205 7.66768L338.171 8.11872L339.194 8.56976L340.103 9.18993L341.069 9.69735L342.83 10.9941L344.421 12.5163L345.898 14.0386L347.262 15.8428L347.83 16.8012L348.398 17.7597L348.909 18.7181L349.364 19.6766L349.705 20.6914L350.159 21.7626L350.387 22.8339L350.671 23.9614L350.841 25.089L351.012 26.2166L351.125 27.3442V28.4718V29.7122L351.012 30.8398L350.841 31.9674L350.671 33.0386L350.387 34.1662L350.159 35.2374L349.705 36.2523L349.364 37.3235L348.909 38.3383L348.398 39.3531L347.83 40.3116L347.262 41.1573L345.898 42.9051L344.421 44.4837L342.83 45.9496L341.069 47.3027L340.103 47.9229L339.194 48.4303L338.171 48.9377L337.205 49.3887L336.126 49.727L335.103 50.1781L334.024 50.4036L332.887 50.6855L331.808 50.8546L330.671 51.0238L329.535 51.1365H328.285H327.149L326.012 51.0238L324.876 50.8546L323.74 50.6855L322.547 50.4036L321.524 50.1781L320.444 49.727L319.422 49.3887L318.456 48.9377L317.49 48.4303L316.524 47.9229L315.501 47.3027L313.74 45.9496L312.206 44.4837L310.672 42.9051L309.365 41.1573L308.854 40.3116L308.229 39.3531L307.774 38.3383L307.32 37.3235L306.922 36.2523L306.524 35.2374L306.184 34.1662L305.899 33.0386L305.729 31.9674L305.672 30.8398L305.559 29.7122L305.502 28.4718Z" fill="#FDE600"/>
<path fill-rule="evenodd" clip-rule="evenodd" d="M310.445 28.4718L310.615 26.6677L310.843 24.9199L311.297 23.2285L311.808 21.5935L312.604 20.1276L313.513 18.6054L314.536 17.1959L315.729 16.0119L316.922 14.8843L318.342 13.8131L319.82 12.911L321.354 12.1217L323.001 11.6143L324.706 11.2196L326.467 10.9377L328.285 10.7686L330.16 10.9377L331.921 11.2196L333.683 11.6143L335.274 12.1217L336.864 12.911L338.342 13.8131L339.648 14.8843L340.955 16.0119L342.148 17.1959L343.114 18.6054L343.966 20.1276L344.762 21.5935L345.387 23.2285L345.841 24.9199L346.069 26.6677L346.182 28.4718L346.069 30.3324L345.841 32.0801L345.387 33.8279L344.762 35.4065L343.966 36.9852L343.114 38.451L342.148 39.7478L340.955 41.1009L339.648 42.2285L338.342 43.187L336.864 44.0326L335.274 44.822L333.683 45.4421L331.921 45.8932L330.16 46.1187L328.285 46.2315L326.467 46.1187L324.706 45.8932L323.001 45.4421L321.354 44.822L319.82 44.0326L318.342 43.187L316.922 42.2285L315.729 41.1009L314.536 39.7478L313.513 38.451L312.604 36.9852L311.808 35.4065L311.297 33.8279L310.843 32.0801L310.615 30.3324L310.445 28.4718Z" fill="#E3161E"/>
<path fill-rule="evenodd" clip-rule="evenodd" d="M315.785 28.4719L315.899 27.2879L316.069 26.0476L316.297 24.8072L316.751 23.6796L317.263 22.552L317.888 21.5936L318.626 20.6351L319.478 19.733L320.388 18.8874L321.353 18.1544L322.319 17.5906L323.456 17.0268L324.592 16.6322L325.842 16.3503L327.092 16.1811L328.285 16.0684L329.592 16.1811L330.842 16.3503L332.092 16.6322L333.228 17.0268L334.308 17.5906L335.33 18.1544L336.296 18.8874L337.205 19.733L338.001 20.6351L338.682 21.5936L339.307 22.552L339.819 23.6796L340.273 24.8072L340.614 26.0476L340.785 27.2879L340.898 28.4719L340.785 29.825L340.614 31.009L340.273 32.2494L339.819 33.377L339.307 34.4482L338.682 35.463L338.001 36.4215L337.205 37.3236L336.296 38.1129L335.33 38.7894L334.308 39.4096L333.228 39.917L332.092 40.3681L330.842 40.7063L329.592 40.8755L328.285 40.9882L327.092 40.8755L325.842 40.7063L324.592 40.3681L323.456 39.917L322.319 39.4096L321.353 38.7894L320.388 38.1129L319.478 37.3236L318.626 36.4215L317.888 35.463L317.263 34.4482L316.751 33.377L316.297 32.2494L316.069 31.009L315.899 29.825L315.785 28.4719Z" fill="#FDE600"/>
<path fill-rule="evenodd" clip-rule="evenodd" d="M320.274 28.4718L320.388 27.6825L320.444 26.8931L320.615 26.1038L321.013 25.4273L321.24 24.7507L321.694 24.0178L322.149 23.454L322.66 22.8902L323.172 22.3828L323.797 21.9317L324.535 21.4807L325.217 21.2552L325.899 20.8605L326.694 20.6914L327.49 20.635L328.285 20.5222L329.194 20.635L329.99 20.6914L330.671 20.8605L331.467 21.2552L332.149 21.4807L332.774 21.9317L333.399 22.3828L333.91 22.8902L334.478 23.454L334.989 24.0178L335.33 24.7507L335.671 25.4273L335.955 26.1038L336.126 26.8931L336.296 27.6825V28.4718V29.3738L336.126 30.1632L335.955 30.8397L335.671 31.629L335.33 32.362L334.989 32.9258L334.478 33.546L333.91 34.1098L333.399 34.6172L332.774 35.1246L332.149 35.4629L331.467 35.8575L330.671 36.083L329.99 36.2522L329.194 36.4213H328.285H327.49L326.694 36.2522L325.899 36.083L325.217 35.8575L324.535 35.4629L323.797 35.1246L323.172 34.6172L322.66 34.1098L322.149 33.546L321.694 32.9258L321.24 32.362L321.013 31.629L320.615 30.8397L320.444 30.1632L320.388 29.3738L320.274 28.4718Z" fill="#0D6639"/>
<path fill-rule="evenodd" clip-rule="evenodd" d="M328.285 28.4155L348.569 8.40063H363L328.285 28.4155Z" fill="#2B2523"/>
<path fill-rule="evenodd" clip-rule="evenodd" d="M34.7716 46.1188L37.1579 37.4363H11.0224L9.31787 46.1188H34.7716Z" fill="#0D6639"/>
</svg>
