<svg width="239" height="52" viewBox="0 0 239 52" fill="none" xmlns="http://www.w3.org/2000/svg">
<path fill-rule="evenodd" clip-rule="evenodd" d="M92.3969 7.60132H58.4301L56.4941 14.8571H68.1098L60.542 42.1528H71.2776L78.8454 14.8571H90.461L92.3969 7.60132Z" fill="#0B682F"/>
<path fill-rule="evenodd" clip-rule="evenodd" d="M156.811 7.60133H146.603L141.499 26.7774L115.452 6.56479L106.125 42.1528H116.332L121.26 22.804L147.483 43.1894L156.811 7.60133Z" fill="#0B682F"/>
<path fill-rule="evenodd" clip-rule="evenodd" d="M163.323 7.60132H174.234L164.554 42.1528H153.819L163.323 7.60132Z" fill="#0B682F"/>
<path fill-rule="evenodd" clip-rule="evenodd" d="M196.937 42.1528L183.21 24.8771L206.089 7.60132H192.714L170.01 24.7043L169.658 24.8771H169.834L170.714 25.9136L183.562 42.1528H196.937Z" fill="#0B682F"/>
<path fill-rule="evenodd" clip-rule="evenodd" d="M224.392 11.7475L221.929 6.04651L220.873 7.08305L213.481 14.1661L184.618 42.1528H196.937L217.353 22.2857L220.697 29.0233L213.833 29.3688L206.441 36.6246L224.04 36.2791L226.68 42.1528H239L224.392 11.7475Z" fill="#0B682F"/>
<path fill-rule="evenodd" clip-rule="evenodd" d="M95.3888 17.2758H106.3L99.2607 42.1528H88.525L95.3888 17.2758Z" fill="#0B682F"/>
<path fill-rule="evenodd" clip-rule="evenodd" d="M98.0287 7.60132H108.94L106.828 14.8571H96.0928L98.0287 7.60132Z" fill="#0B682F"/>
<path fill-rule="evenodd" clip-rule="evenodd" d="M0 25.9136V24.7043L0.175994 23.3223L0.351988 22.113L0.527982 20.7309L0.879971 19.5216L1.23196 18.3123L1.58395 17.103L2.11193 15.8937L2.63991 14.6844L3.16789 13.6478L3.87187 12.4385L4.57585 11.402L5.27982 10.3654L6.15979 9.50166L6.86377 8.46512L7.74374 7.60133L8.62371 6.73754L9.67968 6.04651L10.5596 5.18272L11.6156 4.49169L12.6716 3.80066L13.9035 3.10963L14.9595 2.59136L16.1915 2.07309L17.4234 1.55482L18.6554 1.2093L19.8873 0.863787L21.1193 0.518272L22.5272 0.345515L23.7592 0.172757L25.1672 0H26.3991H27.8071L29.215 0.172757L30.447 0.345515L31.8549 0.518272L33.0869 0.863787L34.3189 1.2093L35.5508 1.55482L36.7828 2.07309L37.8387 2.59136L39.0707 3.10963L40.1267 3.80066L41.1826 4.49169L42.2386 5.18272L43.2946 6.04651L44.1745 6.73754L45.2305 7.60133L46.1105 8.46512L46.9904 9.50166L47.6944 10.3654L48.3984 11.402L49.1024 12.4385L49.8063 13.6478L50.3343 14.6844L50.8623 15.8937L51.3903 17.103L51.7423 18.3123L52.0943 19.5216L52.4462 20.7309L52.6222 22.113L52.7982 23.3223L52.9742 24.7043V25.9136V27.2957L52.7982 28.6777L52.6222 29.887L52.4462 31.2691L52.0943 32.4784L51.7423 33.6877L51.3903 34.897L50.8623 36.1063L50.3343 37.1429L49.8063 38.3522L49.1024 39.3887L48.3984 40.4252L47.6944 41.4618L46.9904 42.4983L46.1105 43.3621L45.2305 44.3987L44.1745 45.2625L43.2946 46.1262L42.2386 46.8173L41.1826 47.5083L40.1267 48.1993L39.0707 48.8904L37.8387 49.4086L36.7828 49.9269L35.5508 50.4452L34.3189 50.7907L33.0869 51.1362L31.8549 51.4817L30.447 51.6545L29.215 51.8272L27.8071 52H26.3991H25.1672L23.7592 51.8272L22.5272 51.6545L21.1193 51.4817L19.8873 51.1362L18.6554 50.7907L17.4234 50.4452L16.1915 49.9269L14.9595 49.4086L13.9035 48.8904L12.6716 48.1993L11.6156 47.5083L10.5596 46.8173L9.67968 46.1262L8.62371 45.2625L7.74374 44.3987L6.86377 43.3621L6.15979 42.4983L5.27982 41.4618L4.57585 40.4252L3.87187 39.3887L3.16789 38.3522L2.63991 37.1429L2.11193 36.1063L1.58395 34.897L1.23196 33.6877L0.879971 32.4784L0.527982 31.2691L0.351988 29.887L0.175994 28.6777L0 27.2957V25.9136Z" fill="#0B682F"/>
<path fill-rule="evenodd" clip-rule="evenodd" d="M5.45581 25.9136V24.8771L5.6318 23.8405V22.804L5.8078 21.7674L6.15979 20.7309L6.33578 19.8671L6.68777 18.8306L7.21575 17.9668L7.56774 17.103L7.91973 16.2392L8.44771 15.3754L8.97569 14.3389L10.2077 12.784L11.6156 11.402L13.0236 10.0199L14.6075 8.81062L15.6635 8.29235L16.5434 7.77407L17.4234 7.42856L18.3034 7.08304L19.1834 6.56477L20.2393 6.21926L21.1193 6.0465L22.1753 5.87374L23.2312 5.52823H24.2872L25.3431 5.35547H26.3991H27.6311L28.687 5.52823H29.743L30.623 5.87374L31.6789 6.0465L32.7349 6.21926L33.6149 6.56477L34.6708 7.08304L35.5508 7.42856L36.6068 7.77407L37.3107 8.29235L38.1907 8.81062L39.7747 10.0199L41.3586 11.402L42.7666 12.784L43.9985 14.3389L44.5265 15.3754L45.0545 16.2392L45.4065 17.103L45.9345 17.9668L46.1105 18.8306L46.6384 19.8671L46.8144 20.7309L47.1664 21.7674V22.804L47.3424 23.8405L47.5184 24.8771V25.9136V27.1229L47.3424 28.1595L47.1664 29.196V30.0598L46.8144 31.0963L46.6384 32.1329L46.1105 32.9967L45.9345 34.0332L45.4065 34.897L45.0545 35.9335L44.5265 36.7973L43.9985 37.4884L42.7666 39.0432L41.3586 40.598L39.7747 41.98L38.1907 43.1894L37.3107 43.7076L36.6068 44.2259L35.5508 44.5714L34.6708 45.0897L33.6149 45.2624L32.7349 45.7807L31.6789 45.9535L30.623 46.299H29.743L28.687 46.4717L27.6311 46.6445H26.3991H25.3431L24.2872 46.4717L23.2312 46.299H22.1753L21.1193 45.9535L20.2393 45.7807L19.1834 45.2624L18.3034 45.0897L17.4234 44.5714L16.5434 44.2259L15.6635 43.7076L14.6075 43.1894L13.0236 41.98L11.6156 40.598L10.2077 39.0432L8.97569 37.4884L8.44771 36.7973L7.91973 35.9335L7.56774 34.897L7.21575 34.0332L6.68777 32.9967L6.33578 32.1329L6.15979 31.0963L5.8078 30.0598L5.6318 29.196V28.1595L5.45581 27.1229V25.9136Z" fill="#F2E52D"/>
<path fill-rule="evenodd" clip-rule="evenodd" d="M10.0317 25.9136L10.2077 24.3588L10.3837 22.6312L10.7357 21.2492L11.2637 19.6943L11.9677 18.3123L12.8476 16.9302L13.7276 15.7209L14.7836 14.5116L16.0155 13.4751L17.2475 12.6113L18.6555 11.7475L20.0634 11.0565L21.6474 10.5382L23.0553 10.1927L24.8152 10.0199L26.3992 9.84717L28.1591 10.0199L29.7431 10.1927L31.327 10.5382L32.911 11.0565L34.3189 11.7475L35.7269 12.6113L36.9588 13.4751L38.1908 14.5116L39.2468 15.7209L40.1267 16.9302L40.8307 18.3123L41.7107 19.6943L42.2387 21.2492L42.5906 22.6312L42.9426 24.3588V25.9136V27.6412L42.5906 29.196L42.2387 30.9236L41.7107 32.3056L40.8307 33.6877L40.1267 35.0698L39.2468 36.2791L38.1908 37.4884L36.9588 38.5249L35.7269 39.3887L34.3189 40.0797L32.911 40.9435L31.327 41.4618L29.7431 41.8073L28.1591 42.1528H26.3992H24.8152L23.0553 41.8073L21.6474 41.4618L20.0634 40.9435L18.6555 40.0797L17.2475 39.3887L16.0155 38.5249L14.7836 37.4884L13.7276 36.2791L12.8476 35.0698L11.9677 33.6877L11.2637 32.3056L10.7357 30.9236L10.3837 29.196L10.2077 27.6412L10.0317 25.9136Z" fill="#DB2727"/>
<path fill-rule="evenodd" clip-rule="evenodd" d="M14.9595 25.9136V24.8771L15.1355 23.6678L15.4875 22.6312L15.8394 21.5947L16.3674 20.5581L16.8954 19.6944L17.5994 18.8306L18.3034 17.9668L19.1833 17.2757L20.0633 16.5847L20.9433 16.0664L21.9992 15.5482L23.0552 15.2027L24.1112 14.8571L25.3431 14.6844H26.3991H27.631L28.863 14.8571L29.919 15.2027L30.9749 15.5482L32.0309 16.0664L32.9109 16.5847L33.7908 17.2757L34.6708 17.9668L35.3748 18.8306L36.0788 19.6944L36.6067 20.5581L37.1347 21.5947L37.4867 22.6312L37.8387 23.6678L38.0147 24.8771V25.9136V27.1229L37.8387 28.3322L37.4867 29.3688L37.1347 30.4053L36.6067 31.4419L36.0788 32.3057L35.3748 33.1694L34.6708 34.0332L33.7908 34.7243L32.9109 35.4153L32.0309 35.9336L30.9749 36.4518L29.919 36.7973L28.863 37.1429L27.631 37.3156H26.3991H25.3431L24.1112 37.1429L23.0552 36.7973L21.9992 36.4518L20.9433 35.9336L20.0633 35.4153L19.1833 34.7243L18.3034 34.0332L17.5994 33.1694L16.8954 32.3057L16.3674 31.4419L15.8394 30.4053L15.4875 29.3688L15.1355 28.3322L14.9595 27.1229V25.9136Z" fill="#EBDA37"/>
<path fill-rule="evenodd" clip-rule="evenodd" d="M19.0073 25.9136L19.1833 25.2226V24.5316L19.3593 23.8405L19.7113 23.1495L19.8873 22.6312L20.4153 21.9402L20.7673 21.4219L21.2952 20.9037L21.8232 20.3854L22.3512 20.0399L23.0552 19.5216L23.5832 19.3488L24.2871 19.0033L24.9911 18.8306H25.6951L26.3991 18.6578L27.279 18.8306H27.983L28.687 19.0033L29.391 19.3488L30.095 19.5216L30.6229 20.0399L31.1509 20.3854L31.6789 20.9037L32.2069 21.4219L32.5589 21.9402L32.9109 22.6312L33.2628 23.1495L33.4388 23.8405L33.6148 24.5316L33.7908 25.2226V25.9136V26.7774L33.6148 27.4684L33.4388 28.1595L33.2628 28.8505L32.9109 29.5415L32.5589 30.0598L32.2069 30.5781L31.6789 31.0963L31.1509 31.6146L30.6229 31.9601L30.095 32.3056L29.391 32.6512L28.687 32.9967H27.983L27.279 33.1694H26.3991H25.6951L24.9911 32.9967H24.2871L23.5832 32.6512L23.0552 32.3056L22.3512 31.9601L21.8232 31.6146L21.2952 31.0963L20.7673 30.5781L20.4153 30.0598L19.8873 29.5415L19.7113 28.8505L19.3593 28.1595L19.1833 27.4684V26.7774L19.0073 25.9136Z" fill="#0B682F"/>
<path fill-rule="evenodd" clip-rule="evenodd" d="M26.3992 25.9136L45.0545 7.60132H58.4301L26.3992 25.9136Z" fill="#111414"/>
</svg>
