<svg width="47" height="47" viewBox="0 0 47 47" fill="none" xmlns="http://www.w3.org/2000/svg">
<path fill-rule="evenodd" clip-rule="evenodd" d="M33.7694 27.8882C33.1916 27.5993 30.3585 26.207 29.8311 26.0131C29.3037 25.8211 28.9197 25.7261 28.5338 26.3039C28.1499 26.8779 27.0465 28.1771 26.7111 28.5611C26.3737 28.9469 26.0382 28.9935 25.4623 28.7065C24.8864 28.4156 23.0287 27.8087 20.8279 25.8463C19.1156 24.3183 17.958 22.4316 17.6225 21.8537C17.2871 21.2778 17.5857 20.9656 17.8746 20.6786C18.1344 20.4207 18.4505 20.0058 18.7394 19.6703C19.0284 19.3329 19.1234 19.0924 19.3154 18.7066C19.5093 18.3226 19.4123 17.9872 19.2669 17.6982C19.1234 17.4093 17.9716 14.5724 17.4907 13.4186C17.0233 12.2959 16.5483 12.4491 16.1954 12.4297C15.8579 12.4142 15.474 12.4103 15.0901 12.4103C14.7061 12.4103 14.0817 12.5538 13.5543 13.1317C13.0249 13.7076 11.5376 15.1018 11.5376 17.9387C11.5376 20.7736 13.6008 23.5136 13.8898 23.8995C14.1787 24.2834 17.9522 30.1046 23.7326 32.6002C25.1094 33.1936 26.1817 33.5484 27.0175 33.8121C28.3981 34.2523 29.6546 34.1903 30.6475 34.041C31.7527 33.8761 34.0564 32.6467 34.5373 31.301C35.0162 29.9553 35.0162 28.8015 34.8727 28.5611C34.7293 28.3206 34.3453 28.1771 33.7675 27.8882H33.7694ZM23.2556 42.2433H23.2479C19.8145 42.244 16.4443 41.321 13.4903 39.5713L12.7922 39.1563L5.53613 41.0605L7.47329 33.9867L7.0176 33.2614C5.09816 30.2061 4.08237 26.67 4.08762 23.0618C4.0915 12.4937 12.6895 3.89573 23.2634 3.89573C28.3826 3.89573 33.1954 5.893 36.8138 9.51524C38.5985 11.2926 40.013 13.4062 40.9756 15.7337C41.9382 18.0613 42.4297 20.5566 42.4217 23.0753C42.4178 33.6434 33.8198 42.2433 23.2556 42.2433ZM39.5673 6.76365C37.4308 4.61305 34.8887 2.90783 32.0884 1.74682C29.288 0.585811 26.2851 -0.00790424 23.2537 7.94595e-05C10.5448 7.94595e-05 0.197788 10.3452 0.19391 23.0598C0.191971 27.1242 1.25266 31.0916 3.27126 34.5878L0 46.5384L12.2241 43.3312C15.6056 45.1736 19.395 46.1389 23.2459 46.139H23.2556C35.9645 46.139 46.3115 35.7939 46.3154 23.0773C46.3247 20.047 45.7332 17.0449 44.5749 14.2448C43.4166 11.4446 41.7146 8.90184 39.5673 6.76365Z" fill="#0B682F"/>
</svg>
